<?xml version="1.0" encoding="UTF-8"?>
<!-- Copyright 2026 Silvino R. (@silvinor) -->
<!-- SPDX-License-Identifier: MIT -->
<svg width="64px" height="64px" viewBox="0 0 64 64" version="1.1" xmlns="http://www.w3.org/2000/svg" xmlns:xlink="http://www.w3.org/1999/xlink"  fill-rule="nonzero">
  <path fill="#4080BE" d="M32,4 C44.3156197,4 54.7741474,11.9511564 58.5222261,23.0001123 L42.7241327,22.9998869 C40.1559889,19.9430058 36.3049011,18 32,18 C24.2680135,18 18,24.2680135 18,32 C18,39.7319865 24.2680135,46 32,46 C36.3044558,46 40.1551921,44.0573961 42.7233357,41.0010616 L58.5222261,41.0006724 C54.7736521,52.0492201 44.3153282,60 32,60 C16.536027,60 4,47.463973 4,32 C4,16.536027 16.536027,4 32,4 Z" />
  <path fill="#565656" d="M32,24 C35.3570082,24 38.2310757,26.0677146 39.4180912,28.9990323 L64,29 L64,35 L39.4184949,34.9999705 C38.2317275,37.9318165 35.3573888,40 32,40 C27.581722,40 24,36.418278 24,32 C24,27.581722 27.581722,24 32,24 Z" />
</svg>
