<?xml version="1.0" encoding="UTF-8"?>
<!-- Copyright 2026 Silvino R. (@silvinor) -->
<!-- SPDX-License-Identifier: MIT -->
<svg width="64px" height="64px" viewBox="0 0 64 64" version="1.1" xmlns="http://www.w3.org/2000/svg" xmlns:xlink="http://www.w3.org/1999/xlink">
  <path fill="#6bb4e6" d="M59.8412031,35.0006814 C58.3438672,49.0536539 46.4502617,60 32,60 C16.536027,60 4,47.463973 4,32 C4,16.536027 16.536027,4 32,4 C46.4506038,4 58.3444304,14.9468645 59.8412031,29.0003167 L45.677892,29.0003278 C44.3046747,22.7097996 38.7023537,18 32,18 C24.2680135,18 18,24.2680135 18,32 C18,39.7319865 24.2680135,46 32,46 C38.7019995,46 44.3040826,41.2906981 45.6776743,35.0006694 L59.8412031,35.0006814 Z" />
  <path fill="#dcd2da" d="M32,24 C35.3570082,24 38.2310757,26.0677146 39.4180912,28.9990323 L64,29 L64,35 L39.4184949,34.9999705 C38.2317275,37.9318165 35.3573888,40 32,40 C27.581722,40 24,36.418278 24,32 C24,27.581722 27.581722,24 32,24 Z" />
</svg>
